<svg width="96" height="96" xmlns="http://www.w3.org/2000/svg">

 <g>
  <title>background</title>
  <rect fill="none" id="canvas_background" height="402" width="582" y="-1" x="-1"/>
 </g>
 <g>
  <title>Layer 1</title>
  <path fill="#e5e5e5" id="svg_1" d="m76,0l-56,0c-6.63,0 -12,5.37 -12,12l0,72c0,6.63 5.37,12 12,12l56,0c6.63,0 12,-5.37 12,-12l0,-72c0,-6.63 -5.37,-12 -12,-12zm4,84c0,2.21 -1.79,4 -4,4l-56,0c-2.21,0 -4,-1.79 -4,-4l0,-72c0,-2.21 1.79,-4 4,-4l56,0c2.21,0 4,1.79 4,4l0,72z"/>
  <path fill="#e5e5e5" id="svg_2" d="m68,72c0,2.209 -1.791,4 -4,4l-32,0c-2.209,0 -4,-1.791 -4,-4l0,0c0,-2.209 1.791,-4 4,-4l32,0c2.209,0 4,1.791 4,4l0,0z"/>
  <path fill="#e5e5e5" id="svg_3" d="m68,56c0,2.209 -1.791,4 -4,4l-32,0c-2.209,0 -4,-1.791 -4,-4l0,0c0,-2.209 1.791,-4 4,-4l32,0c2.209,0 4,1.791 4,4l0,0z"/>
  <path fill="#e5e5e5" id="svg_4" d="m68,40c0,2.209 -1.791,4 -4,4l-32,0c-2.209,0 -4,-1.791 -4,-4l0,0c0,-2.209 1.791,-4 4,-4l32,0c2.209,0 4,1.791 4,4l0,0z"/>
  <path fill="#e5e5e5" id="svg_5" d="m52,24c0,2.209 -1.791,4 -4,4l-16,0c-2.209,0 -4,-1.791 -4,-4l0,0c0,-2.209 1.791,-4 4,-4l16,0c2.209,0 4,1.791 4,4l0,0z"/>
 </g>
</svg>